<svg width="191" height="241" viewBox="0 0 191 241" fill="none" xmlns="http://www.w3.org/2000/svg">
<g filter="url(#filter0_d_2_130)">
<path d="M95.3172 231.553L94.8172 157.053L185.817 113.553V181.553L95.3172 231.553Z" fill="url(#paint0_linear_2_130)" stroke="#5C1C00"/>
<path d="M94.3172 231.553V157.053L5.31721 110.553V181.553L94.3172 231.553Z" fill="url(#paint1_linear_2_130)" stroke="#5C1C00"/>
<g filter="url(#filter1_i_2_130)">
<path d="M94.8172 157.553L5.31721 110.553L94.8172 67.0531L185.817 113.053L94.8172 157.553Z" fill="url(#paint2_linear_2_130)"/>
</g>
<path d="M94.8172 157.553L5.31721 110.553L94.8172 67.0531L185.817 113.053L94.8172 157.553Z" stroke="#5C1C00"/>
<path d="M93.5993 113.553V90.5531L185.099 45.9007V70.0531L93.5993 113.553Z" fill="url(#paint3_linear_2_130)" stroke="#5C1C00"/>
<path d="M92.8172 113.553L93.3172 91.0531L4.59934 41.798L4.59931 67.0531L92.8172 113.553Z" fill="url(#paint4_linear_2_130)" stroke="#5C1C00"/>
<path d="M93.5993 91.0531L5.0993 41.0531L93.5993 0.553116L184.599 45.0531L93.5993 91.0531Z" fill="url(#paint5_linear_2_130)" stroke="#5C1C00"/>
<path d="M57.5993 42.5531L31.0993 29.5531L6.0993 41.0531L33.0993 56.5531L57.5993 42.5531Z" fill="url(#paint6_linear_2_130)"/>
<path d="M93.5993 28.0531L65.5993 13.5531L93.5993 0.553116L120.599 14.0531L93.5993 28.0531Z" fill="url(#paint7_linear_2_130)"/>
<path d="M93.0993 61.0531L65.5993 74.5531L93.5993 90.5531L121.599 76.5531L93.0993 61.0531Z" fill="url(#paint8_linear_2_130)"/>
<path d="M156.099 59.0531L183.599 45.0531L156.099 31.5531L130.599 44.5531L156.099 59.0531Z" fill="url(#paint9_linear_2_130)"/>
<path d="M104.817 189.553L95.5172 193.553L95.8172 231.053L121.817 216.053L120.817 204.053L104.817 189.553Z" fill="url(#paint10_linear_2_130)"/>
<path d="M174.817 158.553L185.317 153.553V181.553L160.317 195.053V185.053L174.817 158.553Z" fill="url(#paint11_linear_2_130)"/>
<path d="M93.8172 113.053V91.0531L121.817 77.5531V99.5531L93.8172 113.053Z" fill="url(#paint12_linear_2_130)"/>
<path d="M156.317 83.0531V60.5531L184.317 46.5531V70.0531L156.317 83.0531Z" fill="url(#paint13_linear_2_130)"/>
<path d="M84.8172 189.553L93.8172 193.553V231.053L65.8172 215.053V204.053L84.8172 189.553Z" fill="url(#paint14_linear_2_130)"/>
<path d="M14.8172 155.553L5.81721 150.553V181.553L31.8172 196.053V183.553L14.8172 155.553Z" fill="url(#paint15_linear_2_130)"/>
<path d="M65.3172 98.5531V76.0531L92.8172 91.5531L92.3172 113.053L65.3172 98.5531Z" fill="url(#paint16_linear_2_130)"/>
<path d="M32.3172 57.5531L4.81721 41.5531L5.31721 66.5531L32.3172 81.0531V57.5531Z" fill="url(#paint17_linear_2_130)"/>
</g>
<defs>
<filter id="filter0_d_2_130" x="0" y="0" width="190.94" height="240.408" filterUnits="userSpaceOnUse" color-interpolation-filters="sRGB">
<feFlood flood-opacity="0" result="BackgroundImageFix"/>
<feColorMatrix in="SourceAlpha" type="matrix" values="0 0 0 0 0 0 0 0 0 0 0 0 0 0 0 0 0 0 127 0" result="hardAlpha"/>
<feOffset dy="4"/>
<feGaussianBlur stdDeviation="2"/>
<feComposite in2="hardAlpha" operator="out"/>
<feColorMatrix type="matrix" values="0 0 0 0 0 0 0 0 0 0.580769 0 0 0 0 0.0677564 0 0 0 1 0"/>
<feBlend mode="normal" in2="BackgroundImageFix" result="effect1_dropShadow_2_130"/>
<feBlend mode="normal" in="SourceGraphic" in2="effect1_dropShadow_2_130" result="shape"/>
</filter>
<filter id="filter1_i_2_130" x="4.20892" y="63.4951" width="182.731" height="94.6186" filterUnits="userSpaceOnUse" color-interpolation-filters="sRGB">
<feFlood flood-opacity="0" result="BackgroundImageFix"/>
<feBlend mode="normal" in="SourceGraphic" in2="BackgroundImageFix" result="shape"/>
<feColorMatrix in="SourceAlpha" type="matrix" values="0 0 0 0 0 0 0 0 0 0 0 0 0 0 0 0 0 0 127 0" result="hardAlpha"/>
<feOffset dy="-3"/>
<feGaussianBlur stdDeviation="9.8"/>
<feComposite in2="hardAlpha" operator="arithmetic" k2="-1" k3="1"/>
<feColorMatrix type="matrix" values="0 0 0 0 0.042759 0 0 0 0 0.946154 0 0 0 0 0.148155 0 0 0 1 0"/>
<feBlend mode="normal" in2="shape" result="effect1_innerShadow_2_130"/>
</filter>
<linearGradient id="paint0_linear_2_130" x1="70.8172" y1="142.053" x2="118.477" y2="154.068" gradientUnits="userSpaceOnUse">
<stop stop-color="#759B37"/>
<stop offset="1" stop-color="#1C2E13"/>
</linearGradient>
<linearGradient id="paint1_linear_2_130" x1="5.31721" y1="130.053" x2="152.454" y2="236.858" gradientUnits="userSpaceOnUse">
<stop stop-color="#759B37"/>
<stop offset="1" stop-color="#1C2E13"/>
</linearGradient>
<linearGradient id="paint2_linear_2_130" x1="95.3172" y1="75.0531" x2="95.3172" y2="126.553" gradientUnits="userSpaceOnUse">
<stop stop-color="#02A315"/>
<stop offset="0.524038" stop-color="#013D08"/>
</linearGradient>
<linearGradient id="paint3_linear_2_130" x1="97.0319" y1="66.4497" x2="185.296" y2="98.2788" gradientUnits="userSpaceOnUse">
<stop stop-color="#759B37"/>
<stop offset="1" stop-color="#1C2E13"/>
</linearGradient>
<linearGradient id="paint4_linear_2_130" x1="90.0741" y1="62.7889" x2="2.94945" y2="92.4394" gradientUnits="userSpaceOnUse">
<stop stop-color="#759B37"/>
<stop offset="1" stop-color="#1C2E13"/>
</linearGradient>
<linearGradient id="paint5_linear_2_130" x1="94.8493" y1="0.553116" x2="94.8493" y2="91.0531" gradientUnits="userSpaceOnUse">
<stop offset="0.509615" stop-color="#759B37"/>
<stop offset="1" stop-color="#999999"/>
</linearGradient>
<linearGradient id="paint6_linear_2_130" x1="42.5993" y1="0.553115" x2="131.099" y2="66.0531" gradientUnits="userSpaceOnUse">
<stop stop-color="#FDD485"/>
<stop offset="1" stop-color="#BC6C00"/>
</linearGradient>
<linearGradient id="paint7_linear_2_130" x1="42.5993" y1="0.553115" x2="131.099" y2="66.0531" gradientUnits="userSpaceOnUse">
<stop stop-color="#FDD485"/>
<stop offset="1" stop-color="#BC6C00"/>
</linearGradient>
<linearGradient id="paint8_linear_2_130" x1="42.5993" y1="0.553115" x2="131.099" y2="66.0531" gradientUnits="userSpaceOnUse">
<stop stop-color="#FDD485"/>
<stop offset="1" stop-color="#BC6C00"/>
</linearGradient>
<linearGradient id="paint9_linear_2_130" x1="42.5993" y1="0.553115" x2="131.099" y2="66.0531" gradientUnits="userSpaceOnUse">
<stop stop-color="#FDD485"/>
<stop offset="1" stop-color="#BC6C00"/>
</linearGradient>
<linearGradient id="paint10_linear_2_130" x1="58.8172" y1="103.053" x2="176.817" y2="176.053" gradientUnits="userSpaceOnUse">
<stop stop-color="#FECA6A"/>
<stop offset="0.485577" stop-color="#BC6C00"/>
</linearGradient>
<linearGradient id="paint11_linear_2_130" x1="58.8172" y1="103.053" x2="176.817" y2="176.053" gradientUnits="userSpaceOnUse">
<stop stop-color="#FECA6A"/>
<stop offset="0.485577" stop-color="#BC6C00"/>
</linearGradient>
<linearGradient id="paint12_linear_2_130" x1="58.8172" y1="103.053" x2="176.817" y2="176.053" gradientUnits="userSpaceOnUse">
<stop stop-color="#FECA6A"/>
<stop offset="0.485577" stop-color="#BC6C00"/>
</linearGradient>
<linearGradient id="paint13_linear_2_130" x1="58.8172" y1="103.053" x2="176.817" y2="176.053" gradientUnits="userSpaceOnUse">
<stop stop-color="#FECA6A"/>
<stop offset="0.485577" stop-color="#BC6C00"/>
</linearGradient>
<linearGradient id="paint14_linear_2_130" x1="14.3172" y1="120.553" x2="81.8171" y2="191.053" gradientUnits="userSpaceOnUse">
<stop stop-color="#FECA6A"/>
<stop offset="1" stop-color="#BC6C00"/>
</linearGradient>
<linearGradient id="paint15_linear_2_130" x1="14.3172" y1="120.553" x2="81.8171" y2="191.053" gradientUnits="userSpaceOnUse">
<stop stop-color="#FECA6A"/>
<stop offset="1" stop-color="#BC6C00"/>
</linearGradient>
<linearGradient id="paint16_linear_2_130" x1="14.3172" y1="120.553" x2="81.8171" y2="191.053" gradientUnits="userSpaceOnUse">
<stop stop-color="#FECA6A"/>
<stop offset="1" stop-color="#BC6C00"/>
</linearGradient>
<linearGradient id="paint17_linear_2_130" x1="14.3172" y1="120.553" x2="81.8171" y2="191.053" gradientUnits="userSpaceOnUse">
<stop stop-color="#FECA6A"/>
<stop offset="1" stop-color="#BC6C00"/>
</linearGradient>
</defs>
</svg>
