<svg width="493" height="493" viewBox="0 0 493 493" fill="none" xmlns="http://www.w3.org/2000/svg">
<rect width="493" height="493" fill="#0B0F0C"/>
<path d="M115.033 409.19L146.339 384.15L146.544 383.985C153.076 378.747 156.384 376.118 160.061 374.249C163.361 372.564 166.839 371.345 170.496 370.592C174.584 369.75 178.836 369.75 187.381 369.75H365.703C388.669 369.75 400.172 369.75 408.944 365.272C416.673 361.333 422.958 355.049 426.897 347.319C431.375 338.527 431.375 327.023 431.375 304.099V147.838C431.375 124.873 431.375 113.37 426.897 104.598C422.953 96.8651 416.661 90.5801 408.923 86.6448C400.152 82.1667 388.648 82.1667 365.642 82.1667H127.358C104.352 82.1667 92.8483 82.1667 84.0565 86.6448C76.3265 90.5836 70.0418 96.8683 66.1031 104.598C61.625 113.39 61.625 124.893 61.625 147.9V383.534C61.625 405.431 61.625 416.38 66.1031 421.988C68.0287 424.405 70.4751 426.357 73.2599 427.698C76.0448 429.039 79.0964 429.734 82.1872 429.732C89.3768 429.732 97.9221 422.871 115.033 409.19Z" stroke="#9AE600" stroke-width="41.0833" stroke-linecap="round" stroke-linejoin="round"/>
</svg>
