<svg width="493" height="493" viewBox="0 0 493 493" fill="none" xmlns="http://www.w3.org/2000/svg">
<rect width="493" height="493" fill="#0B0F0C"/>
<path d="M349.208 85.0424V41.0833H287.583V82.1666H205.417V41.0833H143.792V85.0424C108.46 94.2862 82.1667 126.126 82.1667 164.333V410.833C82.1667 433.429 100.654 451.917 123.25 451.917H369.75C392.346 451.917 410.833 433.429 410.833 410.833V164.333C410.833 126.126 384.54 94.2862 349.208 85.0424ZM369.75 410.833H123.25V164.333C123.25 141.737 141.738 123.25 164.333 123.25H328.667C351.263 123.25 369.75 141.737 369.75 164.333V410.833ZM338.938 246.5V328.667H297.854V287.583H154.063V246.5H338.938Z" fill="#9AE600"/>
</svg>
