<svg width="493" height="494" viewBox="0 0 493 494" fill="none" xmlns="http://www.w3.org/2000/svg">
<rect width="493" height="493" fill="#99A1AF"/>
<path d="M380.5 493L213.5 276L347 143.5L492.5 288V493H380.5Z" fill="#0B0F0C" stroke="black"/>
<path d="M492.5 266L359.5 133L484 0.5H492.5V266Z" fill="#0B0F0C" stroke="black"/>
<path d="M460.5 0.5L201 263L11 0.5H460.5Z" fill="#0B0F0C" stroke="black"/>
<path d="M80.5 493L242.5 362.5L346 493H80.5Z" fill="#0B0F0C" stroke="black"/>
<path d="M236 352L0.5 40V493H64.5L236 352Z" fill="#0B0F0C" stroke="black"/>
<mask id="mask0_32_103" style="mask-type:luminance" maskUnits="userSpaceOnUse" x="65" y="236" width="77" height="111">
<path d="M103.5 345.75C103.5 345.75 66.4492 302.5 66.4492 274.676C66.4492 254.204 83.0283 237.625 103.5 237.625C123.972 237.625 140.551 254.204 140.551 274.676C140.551 302.5 103.5 345.75 103.5 345.75Z" fill="white" stroke="white" stroke-width="2" stroke-linecap="round" stroke-linejoin="round"/>
<path d="M103.5 292.718C113.453 292.718 121.521 284.65 121.521 274.697C121.521 264.745 113.453 256.677 103.5 256.677C93.5474 256.677 85.4792 264.745 85.4792 274.697C85.4792 284.65 93.5474 292.718 103.5 292.718Z" fill="black"/>
</mask>
<g mask="url(#mask0_32_103)">
<path d="M17 216H190V389H17V216Z" fill="#99A1AF"/>
</g>
<path d="M103.5 367.375C127.287 367.375 146.75 359.446 146.75 349.354C146.75 344.308 141.704 339.983 133.775 336.379L138.1 329.892C152.517 335.658 161.167 343.587 161.167 352.958C161.167 368.817 135.217 381.792 103.5 381.792C71.7833 381.792 45.8333 368.817 45.8333 352.958C45.8333 343.587 54.4833 335.658 68.1792 329.892L72.5042 336.379C65.2958 339.983 60.25 344.308 60.25 349.354C60.25 359.446 79.7125 367.375 103.5 367.375Z" fill="#99A1AF"/>
</svg>
