<svg width="493" height="493" viewBox="0 0 493 493" fill="none" xmlns="http://www.w3.org/2000/svg">
<rect width="493" height="493" fill="#0B0F0C"/>
<path d="M246.5 92.4374C232.88 92.4374 219.818 97.8479 210.187 107.479C200.556 117.109 195.146 130.172 195.146 143.792C195.146 157.412 200.556 170.474 210.187 180.104C219.818 189.735 232.88 195.146 246.5 195.146C260.12 195.146 273.182 189.735 282.813 180.104C292.444 170.474 297.854 157.412 297.854 143.792C297.854 130.172 292.444 117.109 282.813 107.479C273.182 97.8479 260.12 92.4374 246.5 92.4374ZM174.604 143.792C174.604 134.35 176.464 125.001 180.077 116.278C183.69 107.555 188.986 99.6297 195.662 92.9535C202.338 86.2774 210.264 80.9816 218.987 77.3685C227.709 73.7554 237.059 71.8958 246.5 71.8958C255.942 71.8958 265.291 73.7554 274.013 77.3685C282.736 80.9816 290.662 86.2774 297.338 92.9535C304.014 99.6297 309.31 107.555 312.923 116.278C316.536 125.001 318.396 134.35 318.396 143.792C318.396 162.86 310.821 181.147 297.338 194.63C283.855 208.113 265.568 215.687 246.5 215.687C227.432 215.687 209.145 208.113 195.662 194.63C182.179 181.147 174.604 162.86 174.604 143.792ZM192.475 257.716C187.682 258.948 182.937 260.331 178.24 261.865L158.541 268.336C150.494 270.956 143.226 275.539 137.395 281.672C131.563 287.805 127.352 295.293 125.14 303.462L116.944 362.622C115.095 375.912 122.141 386.861 133.295 389.532C155.213 394.77 191.859 400.562 246.479 400.562C301.12 400.562 337.787 394.77 359.705 389.532C370.859 386.861 377.884 375.912 376.056 362.622L367.84 303.462C365.628 295.293 361.416 287.805 355.585 281.672C349.753 275.539 342.486 270.956 334.439 268.336L314.739 261.865C310.042 260.318 305.304 258.934 300.525 257.716C296.814 260.627 292.886 263.251 288.775 265.563C275.904 272.956 261.343 276.904 246.5 277.025C228.834 277.025 214.25 271.212 204.225 265.563C200.107 263.251 196.193 260.628 192.475 257.716ZM198.309 235.223L202.294 239.146L202.397 239.249L202.89 239.701C203.369 240.139 204.129 240.769 205.17 241.59C207.224 243.234 210.326 245.452 214.291 247.671C222.24 252.149 233.333 256.483 246.479 256.483C259.626 256.483 270.719 252.169 278.668 247.671C282.71 245.388 286.521 242.718 290.048 239.701L290.562 239.228L290.644 239.167L294.629 235.223L300.134 236.496C307.201 238.112 314.199 240.064 321.128 242.351L340.848 248.821C352.278 252.533 362.585 259.074 370.809 267.837C379.033 276.6 384.908 287.3 387.888 298.943L388.032 299.497L396.372 359.808C399.392 381.582 387.745 403.972 364.45 409.519C340.827 415.147 302.558 421.104 246.479 421.104C190.401 421.104 152.132 415.147 128.509 409.519C105.214 403.972 93.5673 381.582 96.5664 359.808L104.927 299.497L105.071 298.943C108.05 287.3 113.926 276.6 122.15 267.837C130.374 259.074 140.681 252.533 152.111 248.821L171.831 242.351C178.76 240.077 185.758 238.126 192.825 236.496L198.309 235.223Z" fill="#99A1AF"/>
</svg>
