<svg width="493" height="493" viewBox="0 0 493 493" fill="none" xmlns="http://www.w3.org/2000/svg">
<rect width="493" height="493" fill="#0B0F0C"/>
<path d="M308.125 410.833C313.573 410.833 318.798 408.669 322.65 404.817C326.502 400.964 328.667 395.74 328.667 390.292V82.1666H164.333C158.885 82.1666 153.661 84.3308 149.808 88.1831C145.956 92.0354 143.792 97.2603 143.792 102.708V328.667H102.708V102.708C102.708 86.3643 109.201 70.6897 120.758 59.1328C132.315 47.5759 147.989 41.0833 164.333 41.0833H390.292C406.636 41.0833 422.31 47.5759 433.867 59.1328C445.424 70.6897 451.917 86.3643 451.917 102.708V123.25H410.833V102.708C410.833 97.2603 408.669 92.0354 404.817 88.1831C400.965 84.3308 395.74 82.1666 390.292 82.1666C384.844 82.1666 379.619 84.3308 375.767 88.1831C371.914 92.0354 369.75 97.2603 369.75 102.708V390.292C369.75 406.636 363.257 422.31 351.7 433.867C340.144 445.424 324.469 451.917 308.125 451.917H102.708C86.3644 451.917 70.6898 445.424 59.1329 433.867C47.576 422.31 41.0834 406.636 41.0834 390.292V369.75H267.042C267.042 380.646 271.37 391.096 279.075 398.8C286.779 406.505 297.229 410.833 308.125 410.833Z" fill="#9AE600"/>
</svg>
